<svg width="24" height="24" viewBox="0 0 24 24" fill="none" xmlns="http://www.w3.org/2000/svg">
<g id="UI icon/great_ball/light">
<path id="Union" fill-rule="evenodd" clip-rule="evenodd" d="M22 12C22 17.5229 17.5229 22 12 22C6.47715 22 2 17.5229 2 12C2 6.47715 6.47715 2 12 2C17.5229 2 22 6.47715 22 12ZM19.884 13.365C19.2362 17.133 15.9529 20 12 20C7.92038 20 4.55399 16.9463 4.06189 13H8.95935C8.97449 13.0461 8.99065 13.0917 9.0078 13.1368C9.46628 14.3429 10.633 15.2 12 15.2C12.0976 15.2 12.1943 15.1956 12.2897 15.1871C12.5345 15.1651 12.7715 15.1155 12.9973 15.0415C13.9615 14.7256 14.7239 13.9639 15.0407 13H19.9381C19.9228 13.1226 19.9048 13.2443 19.884 13.365ZM14.9922 10.8632C15.0093 10.9083 15.0255 10.9539 15.0406 11H19.9381C19.446 7.05368 16.0796 4 12 4C8.04708 4 4.76378 6.86696 4.116 10.635C4.09523 10.7557 4.07718 10.8774 4.0619 11H8.95935C9.3503 9.81056 10.4197 8.92896 11.7098 8.81298C11.8054 8.80439 11.9022 8.8 12 8.8C13.367 8.8 14.5337 9.6571 14.9922 10.8632ZM12 13.2C12.6627 13.2 13.2 12.6627 13.2 12C13.2 11.3373 12.6627 10.8 12 10.8C11.3373 10.8 10.8 11.3373 10.8 12C10.8 12.6627 11.3373 13.2 12 13.2Z" fill="#6F767E"/>
<path id="Vector 691" d="M6 6L8 8" stroke="#6F767E" stroke-width="1.75" stroke-linecap="round" stroke-linejoin="round"/>
<path id="Vector 692" d="M18 6L16 8" stroke="#6F767E" stroke-width="1.75" stroke-linecap="round" stroke-linejoin="round"/>
</g>
</svg>
