<svg width="24" height="24" viewBox="0 0 24 24" fill="none" xmlns="http://www.w3.org/2000/svg">
<g id="UI icon/master_ball/light">
<path id="Subtract" fill-rule="evenodd" clip-rule="evenodd" d="M12 22C17.5229 22 22 17.5229 22 12C22 6.47715 17.5229 2 12 2C6.47715 2 2 6.47715 2 12C2 17.5229 6.47715 22 12 22ZM12 20C15.9529 20 19.2362 17.133 19.884 13.365C19.9048 13.2443 19.9228 13.1226 19.9381 13H15.0407C14.7239 13.9639 13.9615 14.7256 12.9973 15.0415C12.7715 15.1155 12.5345 15.1651 12.2897 15.1871C12.1943 15.1956 12.0976 15.2 12 15.2C10.633 15.2 9.46628 14.3429 9.0078 13.1368C8.99065 13.0917 8.97449 13.0461 8.95935 13H4.06189C4.55399 16.9463 7.92038 20 12 20ZM13.2 12C13.2 12.6627 12.6627 13.2 12 13.2C11.3373 13.2 10.8 12.6627 10.8 12C10.8 11.3373 11.3373 10.8 12 10.8C12.6627 10.8 13.2 11.3373 13.2 12ZM6.10557 6.55279C6.35256 6.05881 6.95324 5.85858 7.44721 6.10557C7.94119 6.35256 8.14142 6.95324 7.89443 7.44721L5.89443 11.4472C5.64744 11.9412 5.04676 12.1414 4.55279 11.8944C4.05881 11.6474 3.85858 11.0468 4.10557 10.5528L6.10557 6.55279ZM16.5528 6.10557C17.0468 5.85858 17.6474 6.05881 17.8944 6.55279L19.8944 10.5528C20.1414 11.0468 19.9412 11.6474 19.4472 11.8944C18.9532 12.1414 18.3526 11.9412 18.1056 11.4472L16.1056 7.44721C15.8586 6.95324 16.0588 6.35256 16.5528 6.10557ZM9.8704 8.4H10.7174L10.8329 6.9645C10.8659 6.5025 10.8824 6.14133 10.8824 5.881L10.9099 5.98C10.9282 6.04967 10.9667 6.17433 11.0254 6.354C11.0841 6.53367 11.1556 6.73717 11.2399 6.9645L11.7569 8.3615H12.2574L12.7799 6.9645C12.9486 6.51717 13.0806 6.156 13.1759 5.881L13.2474 6.9645L13.3849 8.4H14.2319L13.8469 4.693H12.9174L12.3949 6.035C12.1969 6.541 12.0686 6.915 12.0099 7.157L11.9824 7.047C11.9641 6.97 11.9237 6.838 11.8614 6.651C11.7991 6.464 11.7239 6.25867 11.6359 6.035L11.1189 4.693H10.1894L9.8704 8.4Z" fill="#6F767E"/>
</g>
</svg>
